<svg width="46" height="46" viewBox="0 0 46 46" fill="none" xmlns="http://www.w3.org/2000/svg">
<path d="M23 46C35.7026 46 46 35.7025 46 23C46 10.2975 35.7026 0 23 0C10.2975 0 0 10.2975 0 23C0 35.7025 10.2975 46 23 46Z" fill="#F4AD6B"/>
<path opacity="0.5" d="M18.6398 17.8825C18.6398 18.4909 18.4594 19.0856 18.1214 19.5914C17.7834 20.0972 17.303 20.4915 16.741 20.7243C16.1789 20.9571 15.5605 21.018 14.9638 20.8993C14.3672 20.7806 13.8191 20.4877 13.3889 20.0575C12.9587 19.6273 12.6658 19.0793 12.5471 18.4826C12.4284 17.8859 12.4893 17.2675 12.7221 16.7054C12.955 16.1434 13.3492 15.663 13.855 15.325C14.3608 14.987 14.9555 14.8066 15.5639 14.8066C15.9681 14.8058 16.3684 14.8847 16.742 15.039C17.1156 15.1933 17.455 15.4198 17.7408 15.7056C18.0266 15.9914 18.2531 16.3308 18.4074 16.7044C18.5617 17.078 18.6406 17.4784 18.6398 17.8825V17.8825Z" fill="black"/>
<path opacity="0.5" d="M33.5055 17.8825C33.5082 18.4917 33.3298 19.088 32.9931 19.5957C32.6564 20.1034 32.1766 20.4997 31.6144 20.7343C31.0522 20.9689 30.433 21.0313 29.8353 20.9136C29.2376 20.7959 28.6883 20.5033 28.257 20.073C27.8258 19.6427 27.5321 19.0941 27.4131 18.4966C27.294 17.8992 27.3551 17.2798 27.5886 16.7171C27.822 16.1544 28.2172 15.6737 28.7242 15.3359C29.2312 14.9982 29.827 14.8185 30.4362 14.8198C30.839 14.819 31.238 14.8975 31.6103 15.0511C31.9827 15.2046 32.3211 15.4301 32.6062 15.7145C32.8913 15.999 33.1175 16.337 33.2718 16.709C33.4261 17.081 33.5055 17.4798 33.5055 17.8825V17.8825Z" fill="black"/>
<path opacity="0.5" d="M13.6472 34.2698C13.6472 34.2698 15.8866 28.8887 23.2108 28.8887C30.535 28.8887 32.3528 34.2698 32.3528 34.2698C26.3161 32.0448 19.6839 32.0448 13.6472 34.2698Z" fill="black"/>
</svg>
