<svg width="46" height="46" viewBox="0 0 46 46" fill="none" xmlns="http://www.w3.org/2000/svg">
<path d="M23 46C35.7026 46 46 35.7025 46 23C46 10.2975 35.7026 0 23 0C10.2975 0 0 10.2975 0 23C0 35.7025 10.2975 46 23 46Z" fill="#B0C78C"/>
<path opacity="0.5" d="M18.6397 17.8825C18.6397 18.4909 18.4593 19.0856 18.1213 19.5914C17.7833 20.0972 17.3029 20.4915 16.7409 20.7243C16.1788 20.9571 15.5604 21.018 14.9637 20.8993C14.367 20.7806 13.819 20.4877 13.3888 20.0575C12.9586 19.6273 12.6657 19.0793 12.547 18.4826C12.4283 17.8859 12.4892 17.2675 12.722 16.7054C12.9548 16.1434 13.3491 15.663 13.8549 15.325C14.3607 14.987 14.9554 14.8066 15.5638 14.8066C15.9679 14.8058 16.3683 14.8847 16.7419 15.039C17.1155 15.1933 17.4549 15.4198 17.7407 15.7056C18.0265 15.9914 18.253 16.3308 18.4073 16.7044C18.5616 17.078 18.6405 17.4784 18.6397 17.8825V17.8825Z" fill="black"/>
<path opacity="0.5" d="M33.5053 17.8825C33.5053 18.4912 33.3248 19.0861 32.9865 19.5921C32.6482 20.0981 32.1674 20.4923 31.605 20.7249C31.0426 20.9575 30.4238 21.018 29.8269 20.8988C29.2301 20.7796 28.682 20.486 28.2521 20.0552C27.8222 19.6243 27.5298 19.0757 27.4118 18.4786C27.2939 17.8815 27.3558 17.2628 27.5896 16.7009C27.8234 16.1389 28.2187 15.659 28.7254 15.3218C29.2321 14.9846 29.8274 14.8053 30.436 14.8066C30.8396 14.8066 31.2393 14.8863 31.6121 15.0409C31.9849 15.1956 32.3236 15.4222 32.6087 15.708C32.8938 15.9937 33.1197 16.3328 33.2736 16.7059C33.4274 17.0791 33.5062 17.4789 33.5053 17.8825V17.8825Z" fill="black"/>
<path opacity="0.5" d="M32.3528 28.8887C32.3528 28.8887 30.1068 34.2698 22.7892 34.2698C15.4716 34.2698 13.634 28.8887 13.634 28.8887C19.6754 31.1129 26.3114 31.1129 32.3528 28.8887Z" fill="black"/>
</svg>
