<svg width="46" height="46" viewBox="0 0 46 46" fill="none" xmlns="http://www.w3.org/2000/svg">
<path d="M23 46C35.7026 46 46 35.7025 46 23C46 10.2975 35.7026 0 23 0C10.2975 0 3.05176e-05 10.2975 3.05176e-05 23C3.05176e-05 35.7025 10.2975 46 23 46Z" fill="#6BC479"/>
<path opacity="0.5" d="M10.4198 25.5557C10.4198 25.5557 11.6251 36.9766 22.6114 36.9766C34.388 36.9766 35.5867 25.5557 35.5867 25.5557C35.5867 25.5557 30.9762 27.7951 23 27.7951C15.0238 27.7951 10.4198 25.5557 10.4198 25.5557Z" fill="black"/>
<g clip-path="url(#clip0_5433_132596)">
<path opacity="0.5" d="M18.7141 15.843C18.6036 15.5872 18.4443 15.3553 18.245 15.1605C18.0457 14.965 17.8106 14.8097 17.5526 14.703C17.2851 14.5919 16.9982 14.535 16.7085 14.5357C16.3022 14.5357 15.9057 14.6469 15.5611 14.8571C15.4787 14.9074 15.4004 14.9626 15.3262 15.0228C15.252 14.9626 15.1737 14.9074 15.0913 14.8571C14.7467 14.6469 14.3502 14.5357 13.9438 14.5357C13.6512 14.5357 13.3677 14.5917 13.0998 14.703C12.8409 14.8101 12.6077 14.9643 12.4074 15.1605C12.2079 15.3551 12.0485 15.587 11.9383 15.843C11.8238 16.1092 11.7652 16.392 11.7652 16.6829C11.7652 16.9574 11.8213 17.2435 11.9326 17.5344C12.0257 17.7776 12.1592 18.0298 12.3299 18.2846C12.6002 18.6876 12.972 19.108 13.4336 19.5342C14.1986 20.2406 14.9561 20.7286 14.9882 20.7484L15.1836 20.8737C15.2701 20.9289 15.3814 20.9289 15.468 20.8737L15.6633 20.7484C15.6955 20.7278 16.4522 20.2406 17.218 19.5342C17.6796 19.108 18.0513 18.6876 18.3217 18.2846C18.4923 18.0298 18.6267 17.7776 18.719 17.5344C18.8303 17.2435 18.8863 16.9574 18.8863 16.6829C18.8872 16.392 18.8286 16.1092 18.7141 15.843V15.843Z" fill="black"/>
</g>
<g clip-path="url(#clip1_5433_132596)">
<path opacity="0.5" d="M33.0634 15.843C32.9529 15.5872 32.7936 15.3553 32.5944 15.1605C32.395 14.965 32.16 14.8097 31.902 14.703C31.6345 14.5919 31.3476 14.535 31.0579 14.5357C30.6515 14.5357 30.255 14.6469 29.9105 14.8571C29.8281 14.9074 29.7497 14.9626 29.6756 15.0228C29.6014 14.9626 29.5231 14.9074 29.4406 14.8571C29.0961 14.6469 28.6996 14.5357 28.2932 14.5357C28.0006 14.5357 27.717 14.5917 27.4491 14.703C27.1903 14.8101 26.957 14.9643 26.7567 15.1605C26.5572 15.3551 26.3979 15.587 26.2877 15.843C26.1731 16.1092 26.1146 16.392 26.1146 16.6829C26.1146 16.9574 26.1706 17.2435 26.2819 17.5344C26.3751 17.7776 26.5086 18.0298 26.6792 18.2846C26.9496 18.6876 27.3214 19.108 27.783 19.5342C28.5479 20.2406 29.3054 20.7286 29.3376 20.7484L29.533 20.8737C29.6195 20.9289 29.7308 20.9289 29.8173 20.8737L30.0127 20.7484C30.0448 20.7278 30.8015 20.2406 31.5673 19.5342C32.0289 19.108 32.4007 18.6876 32.6711 18.2846C32.8417 18.0298 32.976 17.7776 33.0684 17.5344C33.1796 17.2435 33.2357 16.9574 33.2357 16.6829C33.2365 16.392 33.178 16.1092 33.0634 15.843V15.843Z" fill="black"/>
</g>
<defs>
<clipPath id="clip0_5433_132596">
<rect width="8.4408" height="8.4408" fill="white" transform="translate(11.1058 13.5054)"/>
</clipPath>
<clipPath id="clip1_5433_132596">
<rect width="8.4408" height="8.4408" fill="white" transform="translate(25.4551 13.5054)"/>
</clipPath>
</defs>
</svg>
