<svg width="46" height="46" viewBox="0 0 46 46" fill="none" xmlns="http://www.w3.org/2000/svg">
<path d="M23 46C35.7025 46 46 35.7025 46 23C46 10.2975 35.7025 0 23 0C10.2974 0 0 10.2975 0 23C0 35.7025 10.2974 46 23 46Z" fill="#F4DC61"/>
<path opacity="0.5" d="M18.6397 17.8825C18.6397 18.4912 18.4592 19.0861 18.1209 19.5921C17.7826 20.0981 17.3018 20.4923 16.7394 20.7249C16.177 20.9575 15.5582 21.018 14.9613 20.8988C14.3645 20.7796 13.8164 20.486 13.3865 20.0552C12.9566 19.6243 12.6642 19.0757 12.5462 18.4786C12.4283 17.8815 12.4902 17.2628 12.724 16.7009C12.9578 16.1389 13.3531 15.659 13.8597 15.3218C14.3664 14.9846 14.9618 14.8053 15.5704 14.8066C15.974 14.8066 16.3737 14.8863 16.7465 15.0409C17.1193 15.1956 17.458 15.4222 17.7431 15.708C18.0282 15.9937 18.2541 16.3328 18.408 16.7059C18.5618 17.0791 18.6406 17.4789 18.6397 17.8825V17.8825Z" fill="black"/>
<path opacity="0.5" d="M33.512 17.8825C33.512 18.4909 33.3316 19.0856 32.9936 19.5914C32.6556 20.0972 32.1752 20.4915 31.6132 20.7243C31.0511 20.9571 30.4327 21.018 29.836 20.8993C29.2393 20.7806 28.6913 20.4877 28.2611 20.0575C27.8309 19.6273 27.538 19.0793 27.4193 18.4826C27.3006 17.8859 27.3615 17.2675 27.5943 16.7054C27.8271 16.1434 28.2214 15.663 28.7272 15.325C29.233 14.987 29.8277 14.8066 30.4361 14.8066C30.8403 14.8058 31.2406 14.8847 31.6142 15.039C31.9878 15.1933 32.3272 15.4198 32.613 15.7056C32.8988 15.9914 33.1253 16.3308 33.2796 16.7044C33.4339 17.078 33.5128 17.4784 33.512 17.8825V17.8825Z" fill="black"/>
<path opacity="0.5" d="M33.4527 30.6274H12.5472V32.5244H33.4527V30.6274Z" fill="black"/>
</svg>
