<svg width="46" height="46" viewBox="0 0 46 46" fill="none" xmlns="http://www.w3.org/2000/svg">
<path d="M23 46C35.7025 46 46 35.7025 46 23C46 10.2975 35.7025 0 23 0C10.2975 0 0 10.2975 0 23C0 35.7025 10.2975 46 23 46Z" fill="#EF7A7A"/>
<path opacity="0.5" fill-rule="evenodd" clip-rule="evenodd" d="M15.5606 19.2814L17.4132 21.1364L18.8124 19.739L16.958 17.8822L18.8124 16.0253L17.4132 14.6279L15.5606 16.483L13.7079 14.6279L12.3087 16.0253L14.1632 17.8822L12.3087 19.739L13.7079 21.1364L15.5606 19.2814Z" fill="black"/>
<path opacity="0.5" fill-rule="evenodd" clip-rule="evenodd" d="M30.4328 19.2814L32.2855 21.1364L33.6847 19.739L31.8302 17.8822L33.6847 16.0253L32.2855 14.6279L30.4328 16.483L28.5802 14.6279L27.181 16.0253L29.0354 17.8822L27.181 19.739L28.5802 21.1364L30.4328 19.2814Z" fill="black"/>
<path opacity="0.5" d="M35.4528 36.6294C35.4528 36.6294 34.2475 25.2084 23.2612 25.2084C11.4846 25.2084 10.2859 36.6294 10.2859 36.6294C10.2859 36.6294 14.8964 34.39 22.8726 34.39C30.8489 34.39 35.4528 36.6294 35.4528 36.6294Z" fill="black"/>
</svg>
