<svg width="26" height="22" viewBox="0 0 26 22" fill="none" xmlns="http://www.w3.org/2000/svg">
<path fill-rule="evenodd" clip-rule="evenodd" d="M23.9331 1.87493C23.9331 1.70924 23.7987 1.57493 23.6331 1.57493L2.32793 1.57493C2.16224 1.57493 2.02793 1.70924 2.02793 1.87493L2.02793 8.06321C2.02793 8.2289 2.16224 8.36321 2.32793 8.36321L13.0217 8.36321C15.0228 8.36321 16.988 7.83183 18.7164 6.82339L23.7842 3.86651C23.8764 3.81274 23.9331 3.71408 23.9331 3.60739V1.87493ZM23.6331 0.174927C24.5719 0.174927 25.3331 0.936043 25.3331 1.87493V3.60739C25.3331 4.21197 25.012 4.77106 24.4898 5.07573L23.4434 5.68622V8.47222C23.4434 11.6202 20.8915 14.1722 17.7434 14.1722L13.1508 14.1722L12.4047 16.1617C11.7168 17.9962 9.96312 19.2114 8.00395 19.2114H3.91753V21.0309C3.91753 21.4175 3.60413 21.7309 3.21753 21.7309C2.83093 21.7309 2.51753 21.4175 2.51753 21.0309V18.5114V15.992C2.51753 15.6054 2.83093 15.292 3.21753 15.292C3.60413 15.292 3.91753 15.6054 3.91753 15.992V17.8114H8.00395C9.37954 17.8114 10.6108 16.9582 11.0938 15.6702L11.6556 14.1722L5.29381 14.1722C3.76303 14.1722 2.53843 12.9009 2.59571 11.3712L2.65592 9.76321H2.32793C1.38905 9.76321 0.62793 9.0021 0.62793 8.06321V1.87493C0.62793 0.936043 1.38905 0.174927 2.32793 0.174927H23.6331ZM4.0569 9.76321L3.99473 11.4236C3.96715 12.1601 4.55677 12.7722 5.29382 12.7722L17.7434 12.7722C20.1183 12.7722 22.0434 10.847 22.0434 8.47222V6.50306L19.4219 8.03262C17.4794 9.166 15.2707 9.76321 13.0217 9.76321H4.0569Z" fill="black"/>
</svg>
