<svg id="Слой_1" data-name="Слой 1" xmlns="http://www.w3.org/2000/svg" xmlns:xlink="http://www.w3.org/1999/xlink" viewBox="0 0 360 440"><defs><style>.cls-1{fill:none;}.cls-2{clip-path:url(#clip-path);}.cls-3{fill:#c51f1f;}.cls-4{fill:#a7cde0;}</style><clipPath id="clip-path"><rect class="cls-1" width="360" height="440"/></clipPath></defs><g class="cls-2"><path class="cls-3" d="M593-25H-642V664.63H593Z"/><path class="cls-4" d="M460.77,147.41c41.33,0,74.83-38.6,74.83-86.21S502.1-25,460.77-25H393.59c11,0,17.81,13.76,12.22,24.66L334.18,139.37c-2.75,5.35-7.48,8-12.22,8H279.05c-12.28,0-22.24,11.48-22.24,25.63V294.17c0,14.16,10,25.63,22.24,25.63H393.59c11,0,17.81,13.76,12.22,24.66L334.18,484.18c-2.75,5.35-7.48,8-12.22,8H279.05c-12.28,0-22.24,11.47-22.24,25.63V639c0,14.16,10,25.63,22.24,25.63H452c-41.33,0-74.83-38.6-74.83-86.2S410.67,492.2,452,492.2h8.77c41.33,0,74.83-38.59,74.83-86.2s-33.5-86.18-74.83-86.18H452c-41.33,0-74.83-38.6-74.83-86.21s33.5-86.2,74.83-86.2Z"/><path class="cls-4" d="M44.12,327.85c-2.74-5.36-7.48-8-12.21-8H7.52c-12.28,0-22.24-11.48-22.24-25.63V173c0-14.15,10-25.63,22.24-25.63h96c11,0,17.8-13.76,12.21-24.66L44.13-17c-2.75-5.36-7.48-8-12.22-8H-79.57C-38.24-25-4.74,13.6-4.74,61.21s-33.5,86.2-74.83,86.2h-8.77c-41.33,0-74.83,38.6-74.83,86.21s33.5,86.2,74.83,86.2h8.77c41.33,0,74.83,38.6,74.83,86.2s-33.5,86.21-74.83,86.21h-8.77c-41.33,0-74.83,38.59-74.83,86.2s33.5,86.21,74.83,86.21H7.52c-12.28,0-22.24-11.48-22.24-25.63V517.86c0-14.16,10-25.63,22.25-25.63h96c11,0,17.8-13.76,12.21-24.66Z"/><path class="cls-4" d="M241.71,147.41h13.91c41.33,0,74.83-38.6,74.83-86.21S297-25,255.62-25H139.29c12.29,0,22.25,11.47,22.25,25.63V121.78c0,14.15-10,25.63-22.25,25.63H116.78c-4.73,0-9.47,2.67-12.21,8L32.94,295.15c-5.59,10.9,1.23,24.66,12.21,24.66h94.14c12.29,0,22.25,11.47,22.25,25.63V466.59c0,14.15-10,25.63-22.25,25.63H116.78c-4.73,0-9.47,2.67-12.21,8L32.94,640c-5.59,10.9,1.23,24.66,12.21,24.66H241.7c-41.32,0-74.82-38.6-74.82-86.2s33.51-86.21,74.83-86.21h13.92c41.33,0,74.83-38.59,74.83-86.2S297,319.8,255.63,319.8H241.71c-41.32,0-74.83-38.59-74.83-86.2S200.38,147.41,241.71,147.41Z"/></g></svg>